<svg xmlns="http://www.w3.org/2000/svg" xmlns:xlink="http://www.w3.org/1999/xlink" width="211.302" height="81.797" viewBox="0 0 211.302 81.797"><defs><clipPath id="clip-path"><rect id="Rectangle_3810" data-name="Rectangle 3810" width="211.302" height="81.797" fill="#4c7291"></rect></clipPath></defs><g id="Groupe_9988" data-name="Groupe 9988" transform="translate(-573.105 -775.943)"><g id="Groupe_9989" data-name="Groupe 9989" transform="translate(573.105 775.943)"><g id="Groupe_9988-2" data-name="Groupe 9988" transform="translate(0 0)" clip-path="url(#clip-path)"><path id="Trac&#xE9;_12630" data-name="Trac&#xE9; 12630" d="M27.147,19.869h.577c.146,0,.194-.047.194-.194V14.324c0-.146-.047-.2-.194-.2h-.577V13.3H28.6v6.379c0,.146.047.194.194.194h.577v.75H27.147Z" transform="translate(80.074 39.222)" fill="#233645"></path><path id="Trac&#xE9;_12631" data-name="Trac&#xE9; 12631" d="M27.86,16.481c0-1.268.628-2.555,2.054-2.555,1.572,0,1.9,1.26,1.9,2.461v.253H28.476a1.474,1.474,0,0,0,1.651,1.446,3.817,3.817,0,0,0,1.592-.363v.8a3.37,3.37,0,0,1-1.6.363,2.213,2.213,0,0,1-2.259-2.405m.648-.427h2.706a1.178,1.178,0,0,0-1.319-1.24,1.269,1.269,0,0,0-1.386,1.24" transform="translate(82.177 41.077)" fill="#233645"></path><path id="Trac&#xE9;_12632" data-name="Trac&#xE9; 12632" d="M29.793,17.987h.624c.146,0,.2-.047.2-.194V15.021c0-.15-.051-.2-.2-.2h-.624v-.81h1.465v.869a1.329,1.329,0,0,1,1.288-.948,2.244,2.244,0,0,1,.517.079v.857a3.627,3.627,0,0,0-.545-.047,2.8,2.8,0,0,0-1.22.3v2.666c0,.146.047.194.194.194h.624v.75H29.793Z" transform="translate(87.879 41.104)" fill="#233645"></path><path id="Trac&#xE9;_12633" data-name="Trac&#xE9; 12633" d="M30.747,18.081c0-1.272.628-2.559,2.054-2.559,1.572,0,1.9,1.26,1.9,2.461v.253H31.363a1.474,1.474,0,0,0,1.651,1.446,3.817,3.817,0,0,0,1.592-.363v.8a3.324,3.324,0,0,1-1.6.363,2.212,2.212,0,0,1-2.259-2.4m.648-.431H34.1a1.178,1.178,0,0,0-1.319-1.24,1.269,1.269,0,0,0-1.386,1.24m.5-3.27,2.109-1v1L31.892,15Z" transform="translate(90.693 39.481)" fill="#233645"></path><path id="Trac&#xE9;_12634" data-name="Trac&#xE9; 12634" d="M32.037,18.5V17.2h.549v.616a2.493,2.493,0,0,0,1.22.245c.6,0,1.2-.087,1.2-.664,0-.529-.632-.608-1.552-.675-.711-.055-1.461-.332-1.461-1.268,0-1.027.837-1.532,1.825-1.532a3.7,3.7,0,0,1,1.513.32v1.319h-.545v-.577a2.918,2.918,0,0,0-.968-.166c-.506,0-1.193.1-1.193.644s.588.608,1.359.664c1.055.091,1.659.395,1.659,1.28,0,.841-.652,1.465-1.876,1.465a3.515,3.515,0,0,1-1.726-.371" transform="translate(94.359 41.077)" fill="#233645"></path><path id="Trac&#xE9;_12635" data-name="Trac&#xE9; 12635" d="M33.1,16.481c0-1.268.628-2.555,2.054-2.555,1.572,0,1.9,1.26,1.9,2.461v.253H33.715a1.474,1.474,0,0,0,1.651,1.446,3.817,3.817,0,0,0,1.592-.363v.8a3.37,3.37,0,0,1-1.6.363A2.213,2.213,0,0,1,33.1,16.481m.648-.427h2.706a1.178,1.178,0,0,0-1.319-1.24,1.269,1.269,0,0,0-1.386,1.24" transform="translate(97.631 41.077)" fill="#233645"></path><path id="Trac&#xE9;_12636" data-name="Trac&#xE9; 12636" d="M34.316,17.5c0-1.1.9-1.485,2.184-1.485h.64v-.34c0-.691-.569-.877-1.145-.877a3.528,3.528,0,0,0-1.335.312v-.8a3.16,3.16,0,0,1,1.493-.383c.936,0,1.667.352,1.667,1.536v2.362c0,.146.051.194.2.194h.577v.754H37.274v-.829a1.546,1.546,0,0,1-1.552.936A1.32,1.32,0,0,1,34.316,17.5m2.832.118V16.6H36.6c-1.22,0-1.659.233-1.659.731,0,.442.273.735.96.735a1.772,1.772,0,0,0,1.248-.45" transform="translate(101.22 41.074)" fill="#233645"></path><path id="Trac&#xE9;_12637" data-name="Trac&#xE9; 12637" d="M36.276,17.254V14.959c0-.146-.047-.194-.194-.194h-.577v-.81h1.453v2.781c0,.849.3,1.22,1.023,1.22a1.959,1.959,0,0,0,1.224-.352V14.959c0-.146-.051-.194-.2-.194h-.675v-.81H39.89v3.776c0,.146.047.194.194.194h.577v.754H39.25v-.735a1.742,1.742,0,0,1-1.517.853,1.356,1.356,0,0,1-1.457-1.544" transform="translate(104.73 41.166)" fill="#233645"></path><path id="Trac&#xE9;_12638" data-name="Trac&#xE9; 12638" d="M37.681,18.317a2.336,2.336,0,0,1,2.074-2.54,1.716,1.716,0,0,1,1.414.723V14.324c0-.146-.051-.2-.194-.2H40.3V13.3h1.552v6.379c0,.146.051.194.2.194h.573v.75H41.208v-.7a1.548,1.548,0,0,1-1.5.818,2.181,2.181,0,0,1-2.022-2.421m3.488,1.3V17.065a2.621,2.621,0,0,0-1.3-.379,1.487,1.487,0,0,0-1.564,1.631,1.551,1.551,0,0,0,1.671,1.631,2.372,2.372,0,0,0,1.193-.332" transform="translate(111.146 39.222)" fill="#233645"></path><path id="Trac&#xE9;_12639" data-name="Trac&#xE9; 12639" d="M39.087,16.481c0-1.268.624-2.555,2.05-2.555,1.576,0,1.908,1.26,1.908,2.461v.253H39.7a1.474,1.474,0,0,0,1.651,1.446,3.786,3.786,0,0,0,1.588-.363v.8a3.359,3.359,0,0,1-1.6.363,2.212,2.212,0,0,1-2.255-2.405m.648-.427H42.44a1.178,1.178,0,0,0-1.319-1.24,1.265,1.265,0,0,0-1.386,1.24" transform="translate(115.293 41.077)" fill="#233645"></path><path id="Trac&#xE9;_12640" data-name="Trac&#xE9; 12640" d="M40.378,18.5V17.2h.549v.616a2.5,2.5,0,0,0,1.216.245c.612,0,1.2-.087,1.2-.664,0-.529-.632-.608-1.548-.675-.711-.055-1.469-.332-1.469-1.268,0-1.027.845-1.532,1.833-1.532a3.718,3.718,0,0,1,1.513.32v1.319h-.549v-.577a2.93,2.93,0,0,0-.964-.166c-.513,0-1.2.1-1.2.644s.592.608,1.363.664c1.051.091,1.655.395,1.655,1.28,0,.841-.656,1.465-1.872,1.465a3.521,3.521,0,0,1-1.73-.371" transform="translate(118.951 41.077)" fill="#233645"></path><path id="Trac&#xE9;_12641" data-name="Trac&#xE9; 12641" d="M42.123,20.328H42.7c.146,0,.2-.047.2-.194V15.048c0-.146-.051-.194-.2-.194h-.577v-.81h1.414v.865a1.626,1.626,0,0,1,1.556-.983,2.182,2.182,0,0,1,1.971,2.421,2.3,2.3,0,0,1-2.137,2.54,1.734,1.734,0,0,1-1.351-.577v1.825c0,.146.047.194.2.194h.577v.735H42.123Zm4.313-3.875a1.49,1.49,0,0,0-1.564-1.639,2.6,2.6,0,0,0-1.3.391v2.536a2.473,2.473,0,0,0,1.3.336,1.477,1.477,0,0,0,1.564-1.623" transform="translate(124.248 41.077)" fill="#233645"></path><path id="Trac&#xE9;_12642" data-name="Trac&#xE9; 12642" d="M43.57,18.081c0-1.272.624-2.559,2.05-2.559,1.572,0,1.9,1.26,1.9,2.461v.253H44.182a1.476,1.476,0,0,0,1.651,1.446,3.8,3.8,0,0,0,1.592-.363v.8a3.313,3.313,0,0,1-1.6.363,2.209,2.209,0,0,1-2.255-2.4m.644-.431h2.705A1.176,1.176,0,0,0,45.6,16.41a1.269,1.269,0,0,0-1.386,1.24m.5-3.27,2.109-1v1L44.711,15Z" transform="translate(128.516 39.481)" fill="#233645"></path><path id="Trac&#xE9;_12643" data-name="Trac&#xE9; 12643" d="M44.75,20.328h.577c.142,0,.194-.047.194-.194V15.048c0-.146-.051-.194-.194-.194H44.75v-.81h1.414v.865a1.621,1.621,0,0,1,1.552-.983,2.18,2.18,0,0,1,1.971,2.421,2.3,2.3,0,0,1-2.137,2.54A1.732,1.732,0,0,1,46.2,18.31v1.825c0,.146.047.194.194.194h.577v.735H44.75Zm4.313-3.875A1.49,1.49,0,0,0,47.5,14.815a2.586,2.586,0,0,0-1.3.391v2.536a2.464,2.464,0,0,0,1.3.336,1.477,1.477,0,0,0,1.564-1.623" transform="translate(131.997 41.077)" fill="#233645"></path><path id="Trac&#xE9;_12644" data-name="Trac&#xE9; 12644" d="M46.2,19.866h.624c.146,0,.2-.047.2-.194V16.9c0-.146-.051-.194-.2-.194H46.2V15.9h1.5v3.776c0,.146.043.194.194.194h.577v.754H46.2Zm.466-5.924c0-.352.178-.644.561-.644.4,0,.573.292.573.644a.566.566,0,0,1-.573.616.548.548,0,0,1-.561-.616" transform="translate(136.265 39.225)" fill="#233645"></path><path id="Trac&#xE9;_12645" data-name="Trac&#xE9; 12645" d="M46.923,18.008h.624c.146,0,.2-.047.2-.194V15.042c0-.15-.051-.2-.2-.2h-.624v-.81h1.461V14.9a1.733,1.733,0,0,1,1.56-.976A1.4,1.4,0,0,1,51.4,15.421v2.393c0,.146.047.194.2.194h.573v.75H50.023v-.75h.5c.146,0,.2-.047.2-.194v-2.03c0-.735-.466-.968-1.027-.968a2.485,2.485,0,0,0-1.268.379v2.619c0,.146.051.194.2.194h.494v.75h-2.2Z" transform="translate(138.406 41.083)" fill="#233645"></path><path id="Trac&#xE9;_12646" data-name="Trac&#xE9; 12646" d="M48.4,19.866h.624c.146,0,.2-.047.2-.194V16.9c0-.146-.051-.194-.2-.194H48.4V15.9h1.5v3.776c0,.146.043.194.194.194h.577v.754H48.4Zm.466-5.924c0-.352.178-.644.561-.644.4,0,.573.292.573.644a.566.566,0,0,1-.573.616.548.548,0,0,1-.561-.616" transform="translate(142.778 39.225)" fill="#233645"></path><path id="Trac&#xE9;_12647" data-name="Trac&#xE9; 12647" d="M49.13,18.081c0-1.272.628-2.559,2.054-2.559,1.572,0,1.9,1.26,1.9,2.461v.253H49.75A1.47,1.47,0,0,0,51.4,19.681a3.813,3.813,0,0,0,1.588-.363v.8a3.324,3.324,0,0,1-1.6.363,2.212,2.212,0,0,1-2.259-2.4m.652-.431h2.7a1.178,1.178,0,0,0-1.319-1.24,1.264,1.264,0,0,0-1.382,1.24m.249-3.27v-1l2.109,1V15Z" transform="translate(144.916 39.481)" fill="#233645"></path><path id="Trac&#xE9;_12648" data-name="Trac&#xE9; 12648" d="M50.345,17.987h.624c.146,0,.2-.047.2-.194V15.021c0-.15-.051-.2-.2-.2h-.624v-.81H51.81v.869a1.325,1.325,0,0,1,1.288-.948,2.277,2.277,0,0,1,.517.079v.857a3.679,3.679,0,0,0-.549-.047,2.8,2.8,0,0,0-1.216.3v2.666c0,.146.047.194.194.194h.624v.75H50.345Z" transform="translate(148.5 41.104)" fill="#233645"></path><path id="Trac&#xE9;_12649" data-name="Trac&#xE9; 12649" d="M51.3,16.481c0-1.268.628-2.555,2.054-2.555,1.576,0,1.908,1.26,1.908,2.461v.253H51.919a1.47,1.47,0,0,0,1.651,1.446,3.786,3.786,0,0,0,1.588-.363v.8a3.37,3.37,0,0,1-1.6.363A2.213,2.213,0,0,1,51.3,16.481m.652-.427h2.705a1.18,1.18,0,0,0-1.319-1.24,1.265,1.265,0,0,0-1.386,1.24" transform="translate(151.314 41.077)" fill="#233645"></path><path id="Trac&#xE9;_12650" data-name="Trac&#xE9; 12650" d="M52.591,18.5V17.2h.549v.616a2.487,2.487,0,0,0,1.216.245c.608,0,1.2-.087,1.2-.664,0-.529-.632-.608-1.552-.675-.711-.055-1.465-.332-1.465-1.268,0-1.027.841-1.532,1.829-1.532a3.7,3.7,0,0,1,1.513.32v1.319h-.549v-.577a2.894,2.894,0,0,0-.964-.166c-.509,0-1.193.1-1.193.644s.588.608,1.359.664c1.055.091,1.659.395,1.659,1.28,0,.841-.656,1.465-1.876,1.465a3.505,3.505,0,0,1-1.726-.371" transform="translate(154.975 41.077)" fill="#233645"></path><path id="Trac&#xE9;_12651" data-name="Trac&#xE9; 12651" d="M27.181,21.082a2.336,2.336,0,0,1,2.074-2.54,1.727,1.727,0,0,1,1.414.723V17.089c0-.146-.051-.2-.2-.2H29.8v-.829h1.552v6.379c0,.146.047.194.194.194h.577v.75H30.708v-.7a1.549,1.549,0,0,1-1.5.822,2.181,2.181,0,0,1-2.022-2.421m3.488,1.3V19.83a2.621,2.621,0,0,0-1.3-.379,1.485,1.485,0,0,0-1.564,1.631,1.551,1.551,0,0,0,1.671,1.631,2.372,2.372,0,0,0,1.193-.332" transform="translate(80.174 47.378)" fill="#233645"></path><path id="Trac&#xE9;_12652" data-name="Trac&#xE9; 12652" d="M28.635,19.245c0-1.268.632-2.555,2.058-2.555,1.568,0,1.9,1.26,1.9,2.461V19.4H29.255A1.469,1.469,0,0,0,30.9,20.849a3.817,3.817,0,0,0,1.592-.363v.8a3.343,3.343,0,0,1-1.6.363,2.214,2.214,0,0,1-2.263-2.405m.648-.427h2.706a1.176,1.176,0,0,0-1.319-1.24,1.271,1.271,0,0,0-1.386,1.24" transform="translate(84.463 49.23)" fill="#233645"></path><path id="Trac&#xE9;_12653" data-name="Trac&#xE9; 12653" d="M30.668,20.748h.624c.146,0,.2-.047.2-.194V17.782c0-.15-.051-.2-.2-.2h-.624v-.81h1.465v.869a1.325,1.325,0,0,1,1.288-.944,2.241,2.241,0,0,1,.517.075v.857a3.628,3.628,0,0,0-.545-.047,2.8,2.8,0,0,0-1.22.3v2.666c0,.146.047.194.194.194h.624v.75H30.668Z" transform="translate(90.46 49.26)" fill="#233645"></path><path id="Trac&#xE9;_12654" data-name="Trac&#xE9; 12654" d="M31.672,19.245c0-1.268.628-2.555,2.054-2.555,1.572,0,1.9,1.26,1.9,2.461V19.4H32.288a1.474,1.474,0,0,0,1.651,1.446,3.817,3.817,0,0,0,1.592-.363v.8a3.369,3.369,0,0,1-1.6.363,2.213,2.213,0,0,1-2.259-2.405m.648-.427h2.706a1.178,1.178,0,0,0-1.319-1.24,1.269,1.269,0,0,0-1.386,1.24" transform="translate(93.421 49.23)" fill="#233645"></path><path id="Trac&#xE9;_12655" data-name="Trac&#xE9; 12655" d="M33.521,17.723a.251.251,0,0,0-.273-.194h-.371v-.81h1.971v.77h-.691L35.425,20.7,36.7,17.49H36v-.77h1.892v.81h-.367a.256.256,0,0,0-.276.194l-1.509,3.807h-.7Z" transform="translate(96.976 49.319)" fill="#233645"></path><path id="Trac&#xE9;_12656" data-name="Trac&#xE9; 12656" d="M35.074,20.018V17.723c0-.146-.047-.194-.194-.194H34.3v-.81h1.453V19.5c0,.849.3,1.22,1.027,1.22A1.947,1.947,0,0,0,38,20.369V17.723c0-.146-.051-.194-.2-.194h-.675v-.81h1.556V20.5c0,.146.047.194.194.194h.577v.754H38.052v-.735a1.748,1.748,0,0,1-1.521.853,1.356,1.356,0,0,1-1.457-1.544" transform="translate(101.185 49.319)" fill="#233645"></path><path id="Trac&#xE9;_12657" data-name="Trac&#xE9; 12657" d="M35.81,19.245c0-1.268.624-2.555,2.05-2.555,1.576,0,1.908,1.26,1.908,2.461V19.4H36.426a1.474,1.474,0,0,0,1.651,1.446,3.786,3.786,0,0,0,1.588-.363v.8a3.359,3.359,0,0,1-1.6.363,2.212,2.212,0,0,1-2.255-2.405m.648-.427h2.706a1.178,1.178,0,0,0-1.319-1.24,1.265,1.265,0,0,0-1.386,1.24" transform="translate(105.627 49.23)" fill="#233645"></path><path id="Trac&#xE9;_12658" data-name="Trac&#xE9; 12658" d="M37.152,21.268v-1.3H37.7v.616a2.487,2.487,0,0,0,1.216.245c.608,0,1.2-.087,1.2-.664,0-.529-.632-.608-1.552-.675-.711-.055-1.465-.332-1.465-1.268,0-1.027.841-1.532,1.829-1.532a3.7,3.7,0,0,1,1.513.32v1.319h-.549v-.577a2.894,2.894,0,0,0-.964-.166c-.509,0-1.193.1-1.193.644s.588.608,1.359.664c1.055.091,1.659.395,1.659,1.28,0,.841-.656,1.465-1.876,1.465a3.505,3.505,0,0,1-1.726-.371" transform="translate(109.435 49.23)" fill="#233645"></path><path id="Trac&#xE9;_12659" data-name="Trac&#xE9; 12659" d="M39.1,21.268v-1.3h.549v.616a2.5,2.5,0,0,0,1.22.245c.608,0,1.2-.087,1.2-.664,0-.529-.636-.608-1.552-.675-.711-.055-1.465-.332-1.465-1.268,0-1.027.841-1.532,1.825-1.532a3.723,3.723,0,0,1,1.517.32v1.319h-.549v-.577a2.918,2.918,0,0,0-.968-.166c-.506,0-1.193.1-1.193.644s.589.608,1.359.664c1.058.091,1.663.395,1.663,1.28,0,.841-.656,1.465-1.876,1.465a3.521,3.521,0,0,1-1.73-.371" transform="translate(115.205 49.23)" fill="#233645"></path><path id="Trac&#xE9;_12660" data-name="Trac&#xE9; 12660" d="M40.216,19.238a2.323,2.323,0,0,1,2.247-2.548,2.3,2.3,0,0,1,1.461.5v1.327H43.4v-.652a1.652,1.652,0,0,0-.987-.284,1.458,1.458,0,0,0-1.572,1.639,1.478,1.478,0,0,0,1.619,1.611,2.994,2.994,0,0,0,1.493-.359v.8a2.8,2.8,0,0,1-1.54.383,2.183,2.183,0,0,1-2.2-2.413" transform="translate(118.623 49.23)" fill="#233645"></path><path id="Trac&#xE9;_12661" data-name="Trac&#xE9; 12661" d="M41.424,22.63h.624c.146,0,.2-.047.2-.194V19.664c0-.146-.051-.194-.2-.194h-.624v-.81h1.5v3.776c0,.146.047.194.2.194H43.7v.754H41.424Zm.47-5.924c0-.352.178-.644.557-.644a.632.632,0,0,1,0,1.26.546.546,0,0,1-.557-.616" transform="translate(122.186 47.378)" fill="#233645"></path><path id="Trac&#xE9;_12662" data-name="Trac&#xE9; 12662" d="M42.2,19.245c0-1.268.624-2.555,2.05-2.555,1.572,0,1.9,1.26,1.9,2.461V19.4H42.812a1.476,1.476,0,0,0,1.651,1.446,3.8,3.8,0,0,0,1.592-.363v.8a3.359,3.359,0,0,1-1.6.363A2.21,2.21,0,0,1,42.2,19.245m.644-.427h2.706a1.176,1.176,0,0,0-1.319-1.24,1.269,1.269,0,0,0-1.386,1.24" transform="translate(124.475 49.23)" fill="#233645"></path><path id="Trac&#xE9;_12663" data-name="Trac&#xE9; 12663" d="M43.464,20.769h.624c.146,0,.2-.047.2-.194V17.8c0-.15-.051-.2-.2-.2h-.624V16.8h1.461v.869a1.719,1.719,0,0,1,1.556-.972,1.4,1.4,0,0,1,1.461,1.489v2.393c0,.146.047.194.194.194h.581v.75H46.568v-.75h.494c.15,0,.2-.047.2-.194v-2.03c0-.735-.474-.968-1.027-.968a2.472,2.472,0,0,0-1.268.379v2.619c0,.146.047.194.194.194h.5v.75h-2.2Z" transform="translate(128.204 49.239)" fill="#233645"></path><path id="Trac&#xE9;_12664" data-name="Trac&#xE9; 12664" d="M45.721,20.482V18.305h-.77V17.5h.77V16.457H46.4V17.5H48v.81H46.4v2.176c0,.644.158,1,.861,1A2.978,2.978,0,0,0,48,21.39v.829a3.435,3.435,0,0,1-.861.118c-1.1,0-1.422-.79-1.422-1.856" transform="translate(132.59 48.543)" fill="#233645"></path><path id="Trac&#xE9;_12665" data-name="Trac&#xE9; 12665" d="M45.934,22.63h.624c.146,0,.2-.047.2-.194V19.664c0-.146-.051-.194-.2-.194h-.624v-.81h1.5v3.776c0,.146.043.194.194.194h.577v.754H45.934Zm.466-5.924c0-.352.178-.644.561-.644a.633.633,0,0,1,0,1.26.548.548,0,0,1-.561-.616" transform="translate(135.489 47.378)" fill="#233645"></path><path id="Trac&#xE9;_12666" data-name="Trac&#xE9; 12666" d="M46.71,22.639h.624c.146,0,.2-.047.2-.194V19.479H46.71v-.81h.833v-.49c0-1.394.79-2.121,1.837-2.121a2.9,2.9,0,0,1,.679.091v.889a2.552,2.552,0,0,0-.664-.087c-.585,0-1.181.182-1.181.956v.762h1.307v.81H48.215v2.966c0,.146.047.194.194.194h1.114v.754H46.71Zm3.436,0h.624c.146,0,.2-.047.2-.194V19.673c0-.146-.051-.194-.2-.194h-.624v-.81h1.5v3.776c0,.146.047.194.2.194h.573v.754H50.146Zm.47-5.924c0-.352.178-.644.557-.644a.632.632,0,0,1,0,1.26.546.546,0,0,1-.557-.616" transform="translate(137.778 47.369)" fill="#233645"></path><path id="Trac&#xE9;_12667" data-name="Trac&#xE9; 12667" d="M51.075,23.1h.573c.146,0,.2-.047.2-.194V20.829a1.524,1.524,0,0,1-1.465.822,2.218,2.218,0,0,1-2.022-2.421,2.336,2.336,0,0,1,2.074-2.54,1.885,1.885,0,0,1,1.473.754v-.636H53.3v.81h-.577c-.146,0-.194.047-.194.2V22.9c0,.146.047.194.194.194H53.3v.731H51.075Zm.77-2.567V17.978a2.632,2.632,0,0,0-1.3-.379,1.485,1.485,0,0,0-1.564,1.631,1.549,1.549,0,0,0,1.671,1.631,2.383,2.383,0,0,0,1.193-.332" transform="translate(142.639 49.23)" fill="#233645"></path><path id="Trac&#xE9;_12668" data-name="Trac&#xE9; 12668" d="M50.546,20.018V17.723c0-.146-.051-.194-.2-.194h-.573v-.81h1.453V19.5c0,.849.292,1.22,1.027,1.22a1.936,1.936,0,0,0,1.217-.352V17.723c0-.146-.047-.194-.194-.194H52.6v-.81h1.552V20.5c0,.146.051.194.2.194h.573v.754h-1.4v-.735A1.75,1.75,0,0,1,52,21.562a1.355,1.355,0,0,1-1.453-1.544" transform="translate(146.822 49.319)" fill="#233645"></path><path id="Trac&#xE9;_12669" data-name="Trac&#xE9; 12669" d="M51.282,19.245c0-1.268.624-2.555,2.05-2.555,1.576,0,1.908,1.26,1.908,2.461V19.4H51.9a1.474,1.474,0,0,0,1.651,1.446,3.786,3.786,0,0,0,1.588-.363v.8a3.359,3.359,0,0,1-1.6.363,2.212,2.212,0,0,1-2.255-2.405m.648-.427h2.706a1.178,1.178,0,0,0-1.319-1.24,1.265,1.265,0,0,0-1.386,1.24" transform="translate(151.264 49.23)" fill="#233645"></path><path id="Trac&#xE9;_12670" data-name="Trac&#xE9; 12670" d="M52.621,21.268v-1.3h.549v.616a2.5,2.5,0,0,0,1.22.245c.608,0,1.2-.087,1.2-.664,0-.529-.636-.608-1.552-.675-.711-.055-1.465-.332-1.465-1.268,0-1.027.841-1.532,1.825-1.532a3.723,3.723,0,0,1,1.517.32v1.319h-.549v-.577a2.918,2.918,0,0,0-.968-.166c-.506,0-1.193.1-1.193.644s.588.608,1.359.664c1.059.091,1.663.395,1.663,1.28,0,.841-.656,1.465-1.876,1.465a3.521,3.521,0,0,1-1.73-.371" transform="translate(155.075 49.23)" fill="#233645"></path><path id="Trac&#xE9;_12671" data-name="Trac&#xE9; 12671" d="M27.181,22.009c0-1.268.628-2.555,2.054-2.555,1.572,0,1.9,1.26,1.9,2.461v.253H27.8a1.474,1.474,0,0,0,1.651,1.446,3.817,3.817,0,0,0,1.592-.363v.8a3.37,3.37,0,0,1-1.6.363,2.213,2.213,0,0,1-2.259-2.405m.648-.427h2.706a1.178,1.178,0,0,0-1.319-1.24,1.269,1.269,0,0,0-1.386,1.24" transform="translate(80.174 57.383)" fill="#233645"></path><path id="Trac&#xE9;_12672" data-name="Trac&#xE9; 12672" d="M28.421,23.537h.624c.146,0,.2-.047.2-.194V20.571c0-.15-.051-.2-.2-.2h-.624v-.81h1.465v.869a1.721,1.721,0,0,1,1.552-.976A1.4,1.4,0,0,1,32.9,20.95v2.393c0,.146.047.194.194.194h.577v.75H31.525v-.75h.5c.146,0,.2-.047.2-.194v-2.03c0-.735-.47-.968-1.027-.968a2.5,2.5,0,0,0-1.268.379v2.619c0,.146.047.194.194.194h.5v.75h-2.2Z" transform="translate(83.832 57.392)" fill="#233645"></path><path id="Trac&#xE9;_12673" data-name="Trac&#xE9; 12673" d="M30.673,23.028c0-1.1.9-1.485,2.188-1.485H33.5V21.2c0-.691-.569-.877-1.145-.877a3.528,3.528,0,0,0-1.335.312v-.8a3.16,3.16,0,0,1,1.493-.383c.936,0,1.667.352,1.667,1.536v2.362c0,.146.051.194.2.194h.577V24.3H33.631v-.829a1.546,1.546,0,0,1-1.552.936,1.32,1.32,0,0,1-1.406-1.378m2.832.118V22.132h-.549c-1.22,0-1.659.233-1.659.731,0,.442.273.735.96.735a1.772,1.772,0,0,0,1.248-.45" transform="translate(90.475 57.383)" fill="#233645"></path><path id="Trac&#xE9;_12674" data-name="Trac&#xE9; 12674" d="M31.932,22a2.3,2.3,0,0,1,3.709-2.05v1.327h-.525v-.656a1.657,1.657,0,0,0-.983-.28,1.459,1.459,0,0,0-1.576,1.639,1.481,1.481,0,0,0,1.623,1.611,2.994,2.994,0,0,0,1.493-.359v.8a2.8,2.8,0,0,1-1.54.383A2.181,2.181,0,0,1,31.932,22" transform="translate(94.188 57.383)" fill="#233645"></path><path id="Trac&#xE9;_12675" data-name="Trac&#xE9; 12675" d="M33.114,22a2.3,2.3,0,0,1,3.709-2.05v1.327H36.3v-.656a1.661,1.661,0,0,0-.987-.28,1.458,1.458,0,0,0-1.572,1.639,1.481,1.481,0,0,0,1.623,1.611,2.994,2.994,0,0,0,1.493-.359v.8a2.81,2.81,0,0,1-1.544.383A2.18,2.18,0,0,1,33.114,22" transform="translate(97.675 57.383)" fill="#233645"></path><path id="Trac&#xE9;_12676" data-name="Trac&#xE9; 12676" d="M34.3,23.609c0-1.272.628-2.559,2.054-2.559,1.572,0,1.9,1.26,1.9,2.461v.253H34.912a1.474,1.474,0,0,0,1.651,1.446,3.817,3.817,0,0,0,1.592-.363v.8a3.324,3.324,0,0,1-1.6.363,2.212,2.212,0,0,1-2.259-2.4m.648-.431h2.706a1.178,1.178,0,0,0-1.319-1.24,1.269,1.269,0,0,0-1.386,1.24m.253-3.27v-1l2.109,1v.616Z" transform="translate(101.161 55.787)" fill="#233645"></path><path id="Trac&#xE9;_12677" data-name="Trac&#xE9; 12677" d="M35.61,24.032v-1.3h.549v.616a2.487,2.487,0,0,0,1.216.245c.608,0,1.2-.087,1.2-.664,0-.529-.632-.608-1.552-.675-.711-.055-1.461-.332-1.461-1.268,0-1.027.837-1.532,1.825-1.532a3.7,3.7,0,0,1,1.513.32v1.319h-.549v-.577a2.894,2.894,0,0,0-.964-.166c-.506,0-1.193.1-1.193.644s.589.608,1.359.664c1.055.091,1.659.395,1.659,1.28,0,.841-.656,1.465-1.876,1.465a3.515,3.515,0,0,1-1.726-.371" transform="translate(104.898 57.383)" fill="#233645"></path><path id="Trac&#xE9;_12678" data-name="Trac&#xE9; 12678" d="M37.441,21.994a2.245,2.245,0,1,1,4.451,0,2.234,2.234,0,1,1-4.451,0m3.827-.02a1.6,1.6,0,1,0-3.2,0,1.6,1.6,0,1,0,3.2,0" transform="translate(110.438 57.383)" fill="#233645"></path><path id="Trac&#xE9;_12679" data-name="Trac&#xE9; 12679" d="M39.515,22.782V20.487c0-.146-.047-.194-.194-.194h-.577v-.81H40.2v2.781c0,.849.292,1.22,1.023,1.22a1.947,1.947,0,0,0,1.22-.352V20.487c0-.146-.051-.194-.2-.194h-.675v-.81h1.556V23.26c0,.146.051.194.2.194H43.9v.754H42.493v-.735a1.748,1.748,0,0,1-1.521.853,1.358,1.358,0,0,1-1.457-1.544" transform="translate(114.284 57.471)" fill="#233645"></path><path id="Trac&#xE9;_12680" data-name="Trac&#xE9; 12680" d="M40.826,20.487a.251.251,0,0,0-.273-.194h-.371v-.81h1.971v.77h-.691l1.268,3.211,1.28-3.211h-.7v-.77H45.2v.81h-.367a.256.256,0,0,0-.276.194l-1.509,3.807h-.7Z" transform="translate(118.523 57.471)" fill="#233645"></path><path id="Trac&#xE9;_12681" data-name="Trac&#xE9; 12681" d="M41.615,22.009c0-1.268.624-2.555,2.05-2.555,1.572,0,1.9,1.26,1.9,2.461v.253H42.227a1.476,1.476,0,0,0,1.651,1.446,3.8,3.8,0,0,0,1.592-.363v.8a3.359,3.359,0,0,1-1.6.363,2.21,2.21,0,0,1-2.255-2.405m.644-.427h2.706a1.176,1.176,0,0,0-1.319-1.24,1.269,1.269,0,0,0-1.386,1.24" transform="translate(122.75 57.383)" fill="#233645"></path><path id="Trac&#xE9;_12682" data-name="Trac&#xE9; 12682" d="M42.853,23.516h.624c.146,0,.2-.047.2-.194V20.55c0-.15-.051-.2-.2-.2h-.624v-.81h1.465v.869a1.329,1.329,0,0,1,1.288-.948,2.244,2.244,0,0,1,.517.079V20.4a3.628,3.628,0,0,0-.545-.047,2.8,2.8,0,0,0-1.22.3v2.666c0,.146.051.194.2.194h.624v.75H42.853Z" transform="translate(126.401 57.412)" fill="#233645"></path><path id="Trac&#xE9;_12683" data-name="Trac&#xE9; 12683" d="M44.583,23.246V21.069h-.77v-.81h.77V19.221h.683V20.26h1.6v.81h-1.6v2.176c0,.644.162,1,.861,1a2.954,2.954,0,0,0,.739-.095v.829a3.434,3.434,0,0,1-.861.118c-1.1,0-1.422-.79-1.422-1.856" transform="translate(129.233 56.696)" fill="#233645"></path><path id="Trac&#xE9;_12684" data-name="Trac&#xE9; 12684" d="M27.157,17.535c.055,8.673,4.68,14.784,12.67,14.784,5.368,0,9.649-2.741,11.13-8.278h.857c-1.086,4.854-5.138,9.076-11.987,9.076-8.788,0-13.528-6.734-13.528-15.641,0-8.1,4.909-14.724,13.243-14.724A11.623,11.623,0,0,1,47.079,5.2c3.251,2.512,5.02,6.908,5.249,12.331ZM39.543,3.549c-6.509,0-12.1,4.85-12.386,13.184H51.471C50.788,7.258,45.25,3.549,39.543,3.549" transform="translate(77.576 8.115)" fill="#4c7291"></path><path id="Trac&#xE9;_12685" data-name="Trac&#xE9; 12685" d="M10.328,13.686c-.111-3.46-1.062-6.106-3.053-7.793a4.558,4.558,0,0,1-.466.766c1.769,1.623,2.575,4.1,2.666,7.252a51.885,51.885,0,0,0,.557,7.011A4.166,4.166,0,0,1,10.64,19c-.138-1.311-.253-3.033-.312-5.316" transform="translate(20.084 17.383)" fill="#4c7291"></path><path id="Trac&#xE9;_12686" data-name="Trac&#xE9; 12686" d="M10.311,22.729l-.273-1.556a52.732,52.732,0,0,1-.557-7.034c-.1-3.27-.952-5.6-2.611-7.117l-.126-.115.107-.138A4.207,4.207,0,0,0,7.3,6.038l.1-.221.186.158c1.987,1.675,3.006,4.27,3.12,7.927.059,2.113.166,3.9.312,5.3l.008.063-.036.055a4,4,0,0,0-.577,1.829ZM7.25,6.86C8.9,8.451,9.758,10.833,9.856,14.127c.067,2.4.2,4.376.395,5.909a4.255,4.255,0,0,1,.387-.853c-.146-1.406-.249-3.179-.308-5.269-.107-3.432-1.027-5.885-2.808-7.5a4.58,4.58,0,0,1-.273.442" transform="translate(19.892 17.159)" fill="#4c7291"></path><path id="Trac&#xE9;_12687" data-name="Trac&#xE9; 12687" d="M.907,6.443v8.776h.857V6.443a3.644,3.644,0,0,1-.423.043,3.947,3.947,0,0,1-.434-.043" transform="translate(2.675 19.005)" fill="#4c7291"></path><path id="Trac&#xE9;_12688" data-name="Trac&#xE9; 12688" d="M2.092,15.561H.86V6.39l.344.039a2.068,2.068,0,0,0,.541,0l.348-.039Zm-.857-.375h.482V6.813a1.967,1.967,0,0,1-.482,0Z" transform="translate(2.537 18.849)" fill="#4c7291"></path><path id="Trac&#xE9;_12689" data-name="Trac&#xE9; 12689" d="M13.34,5.33c-.273.008-.541.024-.825.024H2.024c.012.134.039.261.039.4s-.028.265-.039.4H13.34c-.012-.13-.02-.265-.02-.4a3.74,3.74,0,0,1,.02-.423" transform="translate(5.97 15.722)" fill="#4c7291"></path><path id="Trac&#xE9;_12690" data-name="Trac&#xE9; 12690" d="M13.7,6.485H1.97l.039-.344a1.608,1.608,0,0,0,.02-.241,1.706,1.706,0,0,0-.02-.245C2,5.612,2,5.564,1.994,5.517L1.97,5.312h10.7c.2,0,.395-.008.585-.016l.45-.016-.02.213a3.463,3.463,0,0,0-.024.407c0,.126.008.253.02.379ZM2.393,6.109h10.9c0-.071-.008-.138-.008-.209s0-.154.008-.229H13.27c-.2.008-.395.016-.6.016H2.393a1.937,1.937,0,0,1,.016.213,1.866,1.866,0,0,1-.016.209" transform="translate(5.811 15.575)" fill="#4c7291"></path><path id="Trac&#xE9;_12691" data-name="Trac&#xE9; 12691" d="M1.764,17.362V.845H16.2c7.082,0,11.644,3.594,11.644,10.048,0,3.527-1.173,6.217-3.6,7.923a4.211,4.211,0,0,1,.434.727c2.741-1.821,4.021-4.834,4.021-8.65C28.7,3.866,23.744.047,16.2.047H.907V17.362a3.853,3.853,0,0,1,.434-.043,3.831,3.831,0,0,1,.423.043" transform="translate(2.675 0.139)" fill="#4c7291"></path><path id="Trac&#xE9;_12692" data-name="Trac&#xE9; 12692" d="M24.75,19.962l-.095-.2a4.011,4.011,0,0,0-.419-.7l-.115-.158.158-.111c2.334-1.639,3.519-4.254,3.519-7.769,0-6.169-4.281-9.854-11.45-9.854H2.1V17.71l-.348-.039a1.939,1.939,0,0,0-.545,0l-.344.039V0H16.35c7.943,0,12.686,4.123,12.686,11.031,0,4.033-1.382,7-4.1,8.812Zm-.1-.964a3.916,3.916,0,0,1,.249.411c2.492-1.75,3.756-4.566,3.756-8.377C28.657,4.36,24.055.379,16.35.379H1.234V17.292a1.791,1.791,0,0,1,.482,0V.8H16.35c7.406,0,11.829,3.827,11.829,10.234,0,3.567-1.189,6.244-3.527,7.966" transform="translate(2.534 0)" fill="#4c7291"></path><path id="Trac&#xE9;_12693" data-name="Trac&#xE9; 12693" d="M.565,8.4A3.443,3.443,0,0,1,3.582,5V4.431a3.995,3.995,0,0,0,0,7.947v-.565A3.443,3.443,0,0,1,.565,8.4" transform="translate(0 13.07)" fill="#4c7291"></path><path id="Trac&#xE9;_12694" data-name="Trac&#xE9; 12694" d="M1.124,8.548v.565A4,4,0,0,0,4.675,5.538H4.11a3.423,3.423,0,0,1-2.986,3.01" transform="translate(3.315 16.336)" fill="#4c7291"></path><path id="Trac&#xE9;_12695" data-name="Trac&#xE9; 12695" d="M1.124,4.431V5A3.427,3.427,0,0,1,4.11,8.005h.565A4,4,0,0,0,1.124,4.431" transform="translate(3.315 13.07)" fill="#4c7291"></path><path id="Trac&#xE9;_12696" data-name="Trac&#xE9; 12696" d="M1.341,4.985a3.06,3.06,0,0,1,.427.043V4.463a3.8,3.8,0,0,0-.427-.043,4.045,4.045,0,0,0-.434.043v.565a3.174,3.174,0,0,1,.434-.043" transform="translate(2.675 13.038)" fill="#4c7291"></path><path id="Trac&#xE9;_12697" data-name="Trac&#xE9; 12697" d="M1.341,6.343A3.175,3.175,0,0,1,.907,6.3v.565a4.045,4.045,0,0,0,.434.043,3.805,3.805,0,0,0,.427-.043V6.3a3.061,3.061,0,0,1-.427.043" transform="translate(2.675 18.583)" fill="#4c7291"></path><path id="Trac&#xE9;_12698" data-name="Trac&#xE9; 12698" d="M2.445,5.336H1.88a3.328,3.328,0,0,1,.039.4,3.249,3.249,0,0,1-.039.4h.565c.012-.134.039-.261.039-.4s-.028-.265-.039-.4" transform="translate(5.545 15.74)" fill="#4c7291"></path><path id="Trac&#xE9;_12699" data-name="Trac&#xE9; 12699" d="M.708,7.983A2.885,2.885,0,0,1,3.161,5.139V4.574a3.434,3.434,0,0,0,0,6.817v-.565A2.885,2.885,0,0,1,.708,7.983" transform="translate(0.422 13.492)" fill="#4c7291"></path><path id="Trac&#xE9;_12700" data-name="Trac&#xE9; 12700" d="M1.124,7.983v.565A3.423,3.423,0,0,0,4.11,5.538H3.545A2.882,2.882,0,0,1,1.124,7.983" transform="translate(3.315 16.336)" fill="#4c7291"></path><path id="Trac&#xE9;_12701" data-name="Trac&#xE9; 12701" d="M1.124,4.574v.565A2.878,2.878,0,0,1,3.545,7.584H4.11a3.427,3.427,0,0,0-2.986-3.01" transform="translate(3.315 13.492)" fill="#4c7291"></path><path id="Trac&#xE9;_12702" data-name="Trac&#xE9; 12702" d="M1.341,5.128a2.945,2.945,0,0,1,.423.043V4.606a2.945,2.945,0,0,0-.423-.043,3.853,3.853,0,0,0-.434.043v.565a3.113,3.113,0,0,1,.434-.043" transform="translate(2.675 13.46)" fill="#4c7291"></path><path id="Trac&#xE9;_12703" data-name="Trac&#xE9; 12703" d="M1.777,5.735a3.249,3.249,0,0,1-.039.4H2.3a3.328,3.328,0,0,0,.039-.4,3.328,3.328,0,0,0-.039-.4H1.738a3.249,3.249,0,0,1,.039.4" transform="translate(5.126 15.74)" fill="#4c7291"></path><path id="Trac&#xE9;_12704" data-name="Trac&#xE9; 12704" d="M1.341,6.2a3.113,3.113,0,0,1-.434-.043v.565a3.853,3.853,0,0,0,.434.043,2.945,2.945,0,0,0,.423-.043V6.157a2.945,2.945,0,0,1-.423.043" transform="translate(2.675 18.161)" fill="#4c7291"></path><path id="Trac&#xE9;_12705" data-name="Trac&#xE9; 12705" d="M7.209,6.434a3.655,3.655,0,0,1-.431,1.694c.205.142.4.292.588.45a4.243,4.243,0,0,0,.407-1.8,4.183,4.183,0,0,0-.4-1.789c-.122.083-.253.158-.383.237a3.645,3.645,0,0,1,.221,1.213" transform="translate(19.993 14.701)" fill="#4c7291"></path><path id="Trac&#xE9;_12706" data-name="Trac&#xE9; 12706" d="M9.106,8.473a3.67,3.67,0,0,1-3.6-2.935h-.62a4.23,4.23,0,0,0,7.583,2.168c-.194-.174-.4-.34-.612-.5A3.648,3.648,0,0,1,9.106,8.473" transform="translate(14.418 16.336)" fill="#4c7291"></path><path id="Trac&#xE9;_12707" data-name="Trac&#xE9; 12707" d="M9.106,4.585a3.656,3.656,0,0,1,3.089,1.7c.107-.071.209-.138.312-.209a4.236,4.236,0,0,0-7.619,2.1c.186-.008.375-.008.553-.016A3.674,3.674,0,0,1,9.106,4.585" transform="translate(14.418 12.873)" fill="#4c7291"></path><path id="Trac&#xE9;_12708" data-name="Trac&#xE9; 12708" d="M7.143,5.779a3.725,3.725,0,0,1-.49.719,6.732,6.732,0,0,1,.612.5,4.312,4.312,0,0,0,.466-.766c-.186-.158-.383-.308-.588-.45" transform="translate(19.624 17.046)" fill="#4c7291"></path><path id="Trac&#xE9;_12709" data-name="Trac&#xE9; 12709" d="M5.448,5.425l.008-.1c-.178.012-.367.012-.553.016-.012.142-.02.28-.02.423s.008.269.02.4h.62a3.849,3.849,0,0,1-.075-.743" transform="translate(14.403 15.71)" fill="#4c7291"></path><path id="Trac&#xE9;_12710" data-name="Trac&#xE9; 12710" d="M6.739,5a3.754,3.754,0,0,1,.363.762c.13-.079.261-.154.383-.237A4.118,4.118,0,0,0,7.047,4.8c-.1.071-.2.138-.308.205" transform="translate(19.878 14.156)" fill="#4c7291"></path><path id="Trac&#xE9;_12711" data-name="Trac&#xE9; 12711" d="M8.647,8.247a3.105,3.105,0,0,1-3.069-2.7c-.107,0-.205-.012-.316-.012H5.045A3.664,3.664,0,0,0,11.4,7.209c-.1-.067-.182-.142-.284-.205A3.093,3.093,0,0,1,8.647,8.247" transform="translate(14.881 16.336)" fill="#4c7291"></path><path id="Trac&#xE9;_12712" data-name="Trac&#xE9; 12712" d="M8.694,5.328a3.077,3.077,0,0,1,2.421,1.189c.233-.122.454-.257.667-.395A3.662,3.662,0,0,0,5.029,8c.209-.012.4-.032.6-.047A3.11,3.11,0,0,1,8.694,5.328" transform="translate(14.834 13.038)" fill="#4c7291"></path><path id="Trac&#xE9;_12713" data-name="Trac&#xE9; 12713" d="M7.276,5.044c-.194.115-.391.225-.6.328A3.091,3.091,0,0,1,6.933,6.6a3.153,3.153,0,0,1-.217,1.126c.118.071.237.146.352.225A3.655,3.655,0,0,0,7.5,6.257a3.645,3.645,0,0,0-.221-1.213" transform="translate(19.704 14.878)" fill="#4c7291"></path><path id="Trac&#xE9;_12714" data-name="Trac&#xE9; 12714" d="M5.634,6.215A2.9,2.9,0,0,1,5.591,5.8a2.859,2.859,0,0,1,.051-.49c-.2.016-.4.039-.6.051,0,.032-.012.063-.012.095A3.849,3.849,0,0,0,5.1,6.2h.213c.111,0,.213.008.32.012" transform="translate(14.825 15.675)" fill="#4c7291"></path><path id="Trac&#xE9;_12715" data-name="Trac&#xE9; 12715" d="M7,5.941c.205-.1.407-.213.6-.328a3.741,3.741,0,0,0-.359-.762c-.217.138-.434.273-.667.395a3.145,3.145,0,0,1,.431.7" transform="translate(19.379 14.309)" fill="#4c7291"></path><path id="Trac&#xE9;_12716" data-name="Trac&#xE9; 12716" d="M6.582,6.461c.1.063.186.138.28.205a3.782,3.782,0,0,0,.49-.719C7.238,5.868,7.119,5.8,7,5.722a3.159,3.159,0,0,1-.419.739" transform="translate(19.415 16.878)" fill="#4c7291"></path><path id="Trac&#xE9;_12717" data-name="Trac&#xE9; 12717" d="M11.856,8.695a4.224,4.224,0,0,0-3.614,2.042c.036.4.083.766.13,1.09a3.671,3.671,0,1,1,.739,3.527h-.5c-.233-.233-.636-.727-.983-2.7,0,.091-.008.182-.008.276a4.236,4.236,0,1,0,4.234-4.238" transform="translate(22.482 25.648)" fill="#4c7291"></path><path id="Trac&#xE9;_12718" data-name="Trac&#xE9; 12718" d="M9.1,13.825A3.543,3.543,0,0,1,8.36,10.3c-.043-.328-.091-.691-.13-1.09a4.131,4.131,0,0,0-.6,1.916c.34,1.971.746,2.465.98,2.7Z" transform="translate(22.491 27.173)" fill="#4c7291"></path><path id="Trac&#xE9;_12719" data-name="Trac&#xE9; 12719" d="M9.027,14.932H8.554a3.672,3.672,0,1,0-.743-3.527c.375,2.638.881,3.073,1.216,3.413ZM8.19,12.511A3.108,3.108,0,1,1,11.3,15.62,3.112,3.112,0,0,1,8.19,12.511" transform="translate(23.04 26.069)" fill="#4c7291"></path><path id="Trac&#xE9;_12720" data-name="Trac&#xE9; 12720" d="M8.692,13.011h.47V12.9c-.328-.336-.837-.77-1.213-3.409a3.543,3.543,0,0,0,.743,3.523" transform="translate(22.901 27.987)" fill="#4c7291"></path><path id="Trac&#xE9;_12721" data-name="Trac&#xE9; 12721" d="M33.176,27.448c-2.07,3.251-5.541,4.87-9.657,4.87-7.99,0-12.615-6.11-12.67-14.784H36.02c-.229-5.423-2-9.819-5.249-12.331a11.623,11.623,0,0,0-7.536-2.453c-8.334,0-13.243,6.62-13.243,14.724,0,8.906,4.74,15.641,13.528,15.641,5.8,0,9.582-3.029,11.268-6.9a4.275,4.275,0,0,1-1.611,1.232m-9.941-23.9c5.707,0,11.245,3.709,11.928,13.184H10.849C11.133,8.4,16.726,3.549,23.235,3.549" transform="translate(29.473 8.115)" fill="#4c7291"></path><path id="Trac&#xE9;_12722" data-name="Trac&#xE9; 12722" d="M23.661,33.447c-8.334,0-13.717-6.213-13.717-15.826C9.944,8.837,15.466,2.7,23.373,2.7a11.839,11.839,0,0,1,7.654,2.5c3.243,2.5,5.083,6.813,5.32,12.465l.008.2H11.18c.122,8.891,4.894,14.4,12.481,14.4,4.163,0,7.532-1.7,9.495-4.783l.032-.047.051-.024a4.138,4.138,0,0,0,1.544-1.177l.877-1.086-.561,1.28c-1.939,4.459-6.11,7.015-11.438,7.015M23.373,3.082c-7.686,0-13.054,5.976-13.054,14.539,0,9.384,5.237,15.451,13.342,15.451,4.779,0,8.594-2.113,10.629-5.834a4.486,4.486,0,0,1-.849.5c-2.034,3.164-5.506,4.905-9.779,4.905-7.753,0-12.8-5.873-12.86-14.969l0-.19H35.964C35.7,12.044,33.91,7.9,30.794,5.5a11.487,11.487,0,0,0-7.421-2.413M35.506,17.064H10.793l.008-.194C11.07,9,16.24,3.5,23.373,3.5,30.356,3.5,34.886,8.5,35.49,16.862Zm-24.322-.375H35.1C34.456,8.663,30.083,3.88,23.373,3.88c-6.861,0-11.849,5.257-12.189,12.809" transform="translate(29.331 7.973)" fill="#4c7291"></path><path id="Trac&#xE9;_12723" data-name="Trac&#xE9; 12723" d="M18.6,6.946a4.238,4.238,0,1,0,0,8.476,4.179,4.179,0,0,0,1.683-.352,9.767,9.767,0,0,0,.565-1,3.661,3.661,0,1,1,1.426-2.887,3.831,3.831,0,0,1-.047.482h.391a11.808,11.808,0,0,1-.719,2.176,4.235,4.235,0,0,0-3.3-6.9" transform="translate(42.363 20.489)" fill="#4c7291"></path><path id="Trac&#xE9;_12724" data-name="Trac&#xE9; 12724" d="M17.8,8.141a3.639,3.639,0,0,1-1.378,2.405,11.14,11.14,0,0,1-.561,1,4.275,4.275,0,0,0,1.611-1.232,11.808,11.808,0,0,0,.719-2.176Z" transform="translate(46.787 24.014)" fill="#4c7291"></path><path id="Trac&#xE9;_12725" data-name="Trac&#xE9; 12725" d="M21.8,11.241a3.841,3.841,0,0,0,.047-.478,3.71,3.71,0,1,0-1.426,2.887,12.6,12.6,0,0,0,.912-2.409Zm-3.626,2.63a3.108,3.108,0,1,1,3.108-3.108,3.112,3.112,0,0,1-3.108,3.108" transform="translate(42.785 20.913)" fill="#4c7291"></path><path id="Trac&#xE9;_12726" data-name="Trac&#xE9; 12726" d="M17.382,8.141h-.466A12.561,12.561,0,0,1,16,10.546a3.639,3.639,0,0,0,1.378-2.405" transform="translate(47.206 24.014)" fill="#4c7291"></path><path id="Trac&#xE9;_12727" data-name="Trac&#xE9; 12727" d="M31.354,2.75a12.117,12.117,0,0,0-12.042,9.534h-.055V4.468A4.26,4.26,0,0,1,18.4,5.989V42.136h.857V23.813h.055a11.927,11.927,0,0,0,11.928,9.3c7.307,0,12.73-5.992,12.73-15.238,0-10.328-6.051-15.127-12.615-15.127m-.17,29.567c-6.908,0-11.928-5.537-11.928-14.27,0-8.784,5.02-14.5,11.869-14.5,6.339,0,11.987,4.345,11.987,14.385,0,8.906-5.249,14.385-11.928,14.385" transform="translate(54.271 8.112)" fill="#4c7291"></path><path id="Trac&#xE9;_12728" data-name="Trac&#xE9; 12728" d="M19.584,42.464H18.352V6.06l.047-.051a4.128,4.128,0,0,0,.818-1.457l.367-1.169v7.947A12.253,12.253,0,0,1,31.5,2.7c5.9,0,12.8,4.013,12.8,15.317,0,9.084-5.308,15.427-12.915,15.427a12.189,12.189,0,0,1-11.8-8.346Zm-.857-.375h.478V23.766H19.6l.036.146a11.682,11.682,0,0,0,11.746,9.159c7.382,0,12.54-6.189,12.54-15.052,0-11.027-6.695-14.938-12.426-14.938a11.961,11.961,0,0,0-11.861,9.392l-.039.138h-.391v-7.1a4.464,4.464,0,0,1-.478.687Zm12.6-9.44c-7.252,0-12.121-5.81-12.121-14.46S24.166,3.5,31.267,3.5c5.885,0,12.177,3.827,12.177,14.57,0,8.579-4.984,14.574-12.118,14.574M31.267,3.88c-6.88,0-11.683,5.885-11.683,14.31S24.3,32.27,31.327,32.27c6.912,0,11.738-5.838,11.738-14.2,0-10.467-6.094-14.2-11.8-14.2" transform="translate(54.132 7.973)" fill="#4c7291"></path><path id="Trac&#xE9;_12729" data-name="Trac&#xE9; 12729" d="M21.056,9.693a3.674,3.674,0,1,1,3.361-3.962c.008.087,0,.166,0,.249H24.8V7.3a4.236,4.236,0,1,0-4.048,2.974c.118,0,.233,0,.352-.012a4.221,4.221,0,0,0,2.84-1.438V7.856a3.674,3.674,0,0,1-2.887,1.837" transform="translate(48.726 5.285)" fill="#4c7291"></path><path id="Trac&#xE9;_12730" data-name="Trac&#xE9; 12730" d="M19.256,2.852h-.387a3.6,3.6,0,0,1-.47,1.872v.968a4.251,4.251,0,0,0,.857-1.525Z" transform="translate(54.271 8.413)" fill="#4c7291"></path><path id="Trac&#xE9;_12731" data-name="Trac&#xE9; 12731" d="M20.035,1.946a3.674,3.674,0,1,0,3.488,5.486V5.56h.47c0-.087.012-.166,0-.253a3.673,3.673,0,0,0-3.961-3.361m.553,6.762a3.109,3.109,0,1,1-.506-6.2c.087-.008.17-.012.257-.012a3.11,3.11,0,0,1,.249,6.209" transform="translate(49.147 5.705)" fill="#4c7291"></path><path id="Trac&#xE9;_12732" data-name="Trac&#xE9; 12732" d="M18.4,4.724a3.675,3.675,0,0,0,.47-1.872H18.4Z" transform="translate(54.271 8.413)" fill="#4c7291"></path><path id="Trac&#xE9;_12733" data-name="Trac&#xE9; 12733" d="M34.951,15.3a4.238,4.238,0,1,1,4.238-4.238A4.241,4.241,0,0,1,34.951,15.3m0-7.346a3.108,3.108,0,1,0,3.108,3.108,3.112,3.112,0,0,0-3.108-3.108" transform="translate(90.593 20.141)" fill="#4c7291"></path><path id="Trac&#xE9;_12734" data-name="Trac&#xE9; 12734" d="M45.459,2.765c-4,0-7.591,2.283-9.59,6.505h-.115V3.109H34.9V32.616h.857V12.983a10.079,10.079,0,0,1,8.638-9.361A4.266,4.266,0,0,1,46.234,2.8c-.269-.02-.533-.032-.774-.032" transform="translate(102.937 8.156)" fill="#4c7291"></path><path id="Trac&#xE9;_12735" data-name="Trac&#xE9; 12735" d="M36.083,32.945H34.851V3.062h1.232V8.84A10.572,10.572,0,0,1,45.6,2.718c.245,0,.517.012.786.032l1.45.115-1.43.261a4.049,4.049,0,0,0-1.758.786l-.04.036-.055,0a9.86,9.86,0,0,0-8.468,9.171Zm-.857-.375H35.7V13.121a10.239,10.239,0,0,1,8.752-9.538,4.471,4.471,0,0,1,.8-.486c-3.914.13-7.212,2.441-9.08,6.394l-.051.111H35.7V3.437h-.478Z" transform="translate(102.798 8.018)" fill="#4c7291"></path><path id="Trac&#xE9;_12736" data-name="Trac&#xE9; 12736" d="M41.125,2.755a4.331,4.331,0,0,0-.758.071,6.777,6.777,0,0,1,1.738.308V3.47a3.649,3.649,0,1,1-2.374.126l-.194,0a9.458,9.458,0,0,0-1.011.059,4.232,4.232,0,1,0,2.6-.9" transform="translate(108.804 8.127)" fill="#4c7291"></path><path id="Trac&#xE9;_12737" data-name="Trac&#xE9; 12737" d="M38.5,3.544a3.537,3.537,0,0,1,2.378-.13V3.082a6.48,6.48,0,0,0-1.742-.308A4.2,4.2,0,0,0,37.3,3.6a9.334,9.334,0,0,1,1.007-.055l.194,0" transform="translate(110.028 8.183)" fill="#4c7291"></path><path id="Trac&#xE9;_12738" data-name="Trac&#xE9; 12738" d="M39.309,3.063a3.695,3.695,0,1,0,2.374-.126V3.4a7.932,7.932,0,0,0-2.374-.34m4.5,3.4A3.108,3.108,0,1,1,40.7,3.352,3.112,3.112,0,0,1,43.812,6.46" transform="translate(109.226 8.664)" fill="#4c7291"></path><path id="Trac&#xE9;_12739" data-name="Trac&#xE9; 12739" d="M37.606,3.175a8.1,8.1,0,0,1,2.378.336V3.045a3.537,3.537,0,0,0-2.378.13" transform="translate(110.925 8.551)" fill="#4c7291"></path><path id="Trac&#xE9;_12740" data-name="Trac&#xE9; 12740" d="M44.629,9.742l.154-.118-.154.118" transform="translate(131.64 28.388)" fill="#4c7291"></path><path id="Trac&#xE9;_12741" data-name="Trac&#xE9; 12741" d="M44.829,10,44.6,9.7l.15-.118.237.292Z" transform="translate(131.554 28.277)" fill="#4c7291"></path><path id="Trac&#xE9;_12742" data-name="Trac&#xE9; 12742" d="M42.774,10.26c.312,0,.62-.012.924-.032-.3.02-.612.032-.924.032" transform="translate(126.168 30.169)" fill="#4c7291"></path><path id="Trac&#xE9;_12743" data-name="Trac&#xE9; 12743" d="M42.774,10.588v-.375c.308,0,.612-.012.916-.032l.02.375c-.308.02-.62.032-.936.032" transform="translate(126.168 30.031)" fill="#4c7291"></path><path id="Trac&#xE9;_12744" data-name="Trac&#xE9; 12744" d="M43.977,10.109c.091-.036.178-.075.265-.115-.087.039-.174.079-.265.115" transform="translate(129.717 29.479)" fill="#4c7291"></path><path id="Trac&#xE9;_12745" data-name="Trac&#xE9; 12745" d="M44.1,10.412l-.138-.352h0c.051-.02.1-.043.154-.067l.107-.043.146.348-.091.039-.174.071-.008,0" transform="translate(129.664 29.349)" fill="#4c7291"></path><path id="Trac&#xE9;_12746" data-name="Trac&#xE9; 12746" d="M43.087,10.266c.2-.016.395-.036.588-.059-.194.024-.391.043-.588.059" transform="translate(127.092 30.107)" fill="#4c7291"></path><path id="Trac&#xE9;_12747" data-name="Trac&#xE9; 12747" d="M43.115,10.594l-.032-.375q.3-.024.581-.059l.047.375c-.2.024-.395.043-.6.059" transform="translate(127.08 29.969)" fill="#4c7291"></path><path id="Trac&#xE9;_12748" data-name="Trac&#xE9; 12748" d="M44.465,9.854c.055-.036.111-.071.166-.111-.055.039-.111.075-.166.111" transform="translate(131.156 28.739)" fill="#4c7291"></path><path id="Trac&#xE9;_12749" data-name="Trac&#xE9; 12749" d="M44.644,10.127l-.205-.316L44.6,9.7l.209.312-.111.075Z" transform="translate(131.08 28.624)" fill="#4c7291"></path><path id="Trac&#xE9;_12750" data-name="Trac&#xE9; 12750" d="M44.934,9.4l.028-.032-.028.032" transform="translate(132.54 27.626)" fill="#4c7291"></path><path id="Trac&#xE9;_12751" data-name="Trac&#xE9; 12751" d="M45.2,9.572l-.3-.233.012.008L44.9,9.339l.158.107Z" transform="translate(132.444 27.547)" fill="#4c7291"></path><path id="Trac&#xE9;_12752" data-name="Trac&#xE9; 12752" d="M43.329,10.259c.17-.028.34-.055.506-.087-.166.032-.336.059-.506.087" transform="translate(127.805 30.004)" fill="#4c7291"></path><path id="Trac&#xE9;_12753" data-name="Trac&#xE9; 12753" d="M43.38,10.583l-.059-.371c.079-.012.158-.024.233-.039l.265-.047h0l.071.371h0l-.269.047C43.538,10.559,43.459,10.571,43.38,10.583Z" transform="translate(127.782 29.866)" fill="#4c7291"></path><path id="Trac&#xE9;_12754" data-name="Trac&#xE9; 12754" d="M44.318,9.888l.071-.036-.071.036" transform="translate(130.723 29.06)" fill="#4c7291"></path><path id="Trac&#xE9;_12755" data-name="Trac&#xE9; 12755" d="M44.5,10.15l-.205-.316.036-.02.221.308Z" transform="translate(130.653 28.95)" fill="#4c7291"></path><path id="Trac&#xE9;_12756" data-name="Trac&#xE9; 12756" d="M43.555,10.234c.15-.036.3-.071.45-.111-.15.039-.3.075-.45.111" transform="translate(128.472 29.86)" fill="#4c7291"></path><path id="Trac&#xE9;_12757" data-name="Trac&#xE9; 12757" d="M43.628,10.558l-.083-.371c.15-.036.3-.067.442-.111l.095.363c-.15.043-.3.083-.454.118" transform="translate(128.443 29.721)" fill="#4c7291"></path><path id="Trac&#xE9;_12758" data-name="Trac&#xE9; 12758" d="M43.771,10.191c.134-.039.261-.087.391-.13-.13.043-.257.091-.391.13" transform="translate(129.109 29.677)" fill="#4c7291"></path><path id="Trac&#xE9;_12759" data-name="Trac&#xE9; 12759" d="M43.868,10.506l-.111-.359.008,0h0c.1-.032.205-.067.308-.1l.067-.024.122.355c-.146.051-.273.095-.4.134" transform="translate(129.068 29.544)" fill="#4c7291"></path><path id="Trac&#xE9;_12760" data-name="Trac&#xE9; 12760" d="M44.9,9.494l-.111.107.111-.107" transform="translate(132.106 28.004)" fill="#4c7291"></path><path id="Trac&#xE9;_12761" data-name="Trac&#xE9; 12761" d="M45.007,9.828l-.253-.276.091-.087.146.118.111.154Z" transform="translate(132.01 27.916)" fill="#4c7291"></path><path id="Trac&#xE9;_12762" data-name="Trac&#xE9; 12762" d="M43.669,10.209c.134-.036.269-.071.4-.115-.134.043-.269.079-.4.115" transform="translate(128.808 29.774)" fill="#4c7291"></path><path id="Trac&#xE9;_12763" data-name="Trac&#xE9; 12763" d="M44.507,10.008c.166-.111.324-.233.482-.355-.158.122-.316.241-.482.355" transform="translate(131.28 28.473)" fill="#4c7291"></path><path id="Trac&#xE9;_12764" data-name="Trac&#xE9; 12764" d="M43.87,10.173c.142-.047.284-.095.423-.15-.138.055-.28.1-.423.15" transform="translate(129.401 29.565)" fill="#4c7291"></path><path id="Trac&#xE9;_12765" data-name="Trac&#xE9; 12765" d="M44.044,10.386a11.334,11.334,0,0,0,1.078-.525,10.457,10.457,0,0,1-1.078.525" transform="translate(129.914 29.087)" fill="#4c7291"></path><path id="Trac&#xE9;_12766" data-name="Trac&#xE9; 12766" d="M44.335,10.091c.174-.1.344-.209.513-.32-.17.111-.34.221-.513.32" transform="translate(130.773 28.821)" fill="#4c7291"></path><path id="Trac&#xE9;_12767" data-name="Trac&#xE9; 12767" d="M45.288,9.374q-.231.249-.474.474.243-.225.474-.474" transform="translate(132.186 27.65)" fill="#4c7291"></path><path id="Trac&#xE9;_12768" data-name="Trac&#xE9; 12768" d="M43.008,10.25c.1-.008.205-.02.308-.028-.1.008-.205.02-.308.028" transform="translate(126.859 30.152)" fill="#4c7291"></path><path id="Trac&#xE9;_12769" data-name="Trac&#xE9; 12769" d="M46.155,8.954a10.145,10.145,0,0,1-1.213,1.635,10.461,10.461,0,0,0,1.22-1.639l-.008,0" transform="translate(132.563 26.4)" fill="#4c7291"></path><path id="Trac&#xE9;_12770" data-name="Trac&#xE9; 12770" d="M43.457,10.234c.13-.024.261-.051.387-.083-.126.032-.257.059-.387.083" transform="translate(128.183 29.942)" fill="#4c7291"></path><path id="Trac&#xE9;_12771" data-name="Trac&#xE9; 12771" d="M43.236,10.248c.122-.016.245-.036.367-.055-.122.02-.245.039-.367.055" transform="translate(127.531 30.066)" fill="#4c7291"></path><path id="Trac&#xE9;_12772" data-name="Trac&#xE9; 12772" d="M44.668,9.924c.162-.13.316-.265.47-.4-.154.138-.308.273-.47.4" transform="translate(131.755 28.084)" fill="#4c7291"></path><path id="Trac&#xE9;_12773" data-name="Trac&#xE9; 12773" d="M62.66,27.235a10.5,10.5,0,0,1-1.22,1.643l-.028.032q-.231.249-.474.474l-.111.107c-.154.138-.308.276-.47.4-.051.043-.1.083-.154.122-.158.122-.316.241-.482.352-.055.039-.111.075-.166.111-.17.111-.336.221-.513.32l-.067.036a9.708,9.708,0,0,1-1.078.525c-.091.039-.178.079-.269.115-.138.055-.28.1-.423.15s-.257.091-.391.13-.269.079-.4.115-.3.075-.446.111c-.13.032-.261.055-.391.083-.166.032-.336.059-.506.087-.118.02-.241.036-.363.051-.2.028-.395.043-.592.059-.1.008-.205.02-.308.028-.3.02-.612.032-.928.032-7.99,0-12.615-6.11-12.67-14.784H65.377c-.229-5.423-2-9.819-5.249-12.331a11.623,11.623,0,0,0-7.536-2.453c-8.334,0-13.243,6.62-13.243,14.724,0,8.906,4.74,15.641,13.528,15.641,5.9,0,9.716-3.136,11.359-7.1a4.238,4.238,0,0,1-1.576,1.22M52.592,3.549c5.707,0,11.245,3.709,11.928,13.184H40.206C40.49,8.4,46.087,3.549,52.592,3.549" transform="translate(116.066 8.115)" fill="#4c7291"></path><path id="Trac&#xE9;_12774" data-name="Trac&#xE9; 12774" d="M53.018,33.447c-8.334,0-13.717-6.213-13.717-15.826C39.3,8.837,44.823,2.7,52.73,2.7a11.839,11.839,0,0,1,7.654,2.5c3.243,2.5,5.083,6.813,5.32,12.465l.008.2H40.537c.126,8.756,5.008,14.4,12.481,14.4.308,0,.612-.012.912-.028l.186-.016.122-.012q.29-.024.581-.059c.1-.012.194-.024.288-.039l.071-.012c.17-.028.336-.055.5-.087.13-.024.257-.051.383-.079.15-.036.3-.071.442-.111s.265-.071.4-.111c.118-.039.241-.079.359-.122l.107-.036c.111-.039.221-.075.332-.118l.166-.071.095-.039a11.572,11.572,0,0,0,1.062-.517l.162.126-.095-.162c.174-.1.336-.205.5-.316l.166-.107c.162-.111.316-.225.47-.348l.154-.118c.154-.126.308-.257.458-.395l.091-.083c.178-.17.332-.324.482-.486a10.289,10.289,0,0,0,1.228-1.643l.028-.051.055-.024a4.077,4.077,0,0,0,1.5-1.169L65.057,25l-.509,1.224c-1.9,4.589-6.1,7.22-11.529,7.22M52.73,3.082c-7.686,0-13.054,5.976-13.054,14.539,0,9.384,5.237,15.451,13.342,15.451,4.89,0,8.752-2.2,10.751-6.059a4.451,4.451,0,0,1-.837.513,10.685,10.685,0,0,1-1.213,1.619c-.186.2-.348.363-.513.517l-.115.107c-.154.142-.312.28-.478.415l-.13.1c-.186.142-.348.265-.513.379l-.115.075-.059.036c-.17.115-.34.225-.521.328l-.047.024a10.518,10.518,0,0,1-1.122.545l-.091.039c-.059.028-.118.055-.178.079-.115.043-.233.083-.352.122l-.079.028c-.146.051-.269.095-.4.134s-.269.079-.407.115-.3.079-.458.115l-.391.083c-.17.032-.34.059-.513.087l-.075.012c-.1.016-.2.032-.3.043-.2.024-.4.043-.6.059l-.118.012-.2.016c-.308.02-.62.028-.936.028-7.753,0-12.8-5.873-12.86-14.969l0-.19H65.321C65.053,12.048,63.267,7.9,60.151,5.5A11.488,11.488,0,0,0,52.73,3.082M64.863,17.064H40.15l.008-.194C40.427,9,45.6,3.5,52.73,3.5c6.983,0,11.513,4.992,12.118,13.358Zm-24.322-.375H64.456C63.813,8.663,59.44,3.88,52.73,3.88c-6.861,0-11.849,5.257-12.189,12.809" transform="translate(115.924 7.973)" fill="#4c7291"></path><path id="Trac&#xE9;_12775" data-name="Trac&#xE9; 12775" d="M47.976,6.9a4.238,4.238,0,1,0,0,8.476A4.189,4.189,0,0,0,49.7,15a10.965,10.965,0,0,0,.545-1,3.632,3.632,0,0,1-2.271.806,3.673,3.673,0,1,1,3.673-3.673,3.712,3.712,0,0,1-.067.667h.332a11.957,11.957,0,0,1-.628,1.975,4.235,4.235,0,0,0-3.31-6.88" transform="translate(129.012 20.35)" fill="#4c7291"></path><path id="Trac&#xE9;_12776" data-name="Trac&#xE9; 12776" d="M45.387,8.7Z" transform="translate(133.876 25.656)" fill="#4c7291"></path><path id="Trac&#xE9;_12777" data-name="Trac&#xE9; 12777" d="M45.794,8.7a10.967,10.967,0,0,1-.545,1l.008,0a10.847,10.847,0,0,0,.537-1" transform="translate(133.469 25.656)" fill="#4c7291"></path><path id="Trac&#xE9;_12778" data-name="Trac&#xE9; 12778" d="M47.122,8.141a3.662,3.662,0,0,1-1.335,2.2,10.842,10.842,0,0,1-.537,1,4.238,4.238,0,0,0,1.576-1.22,11.6,11.6,0,0,0,.628-1.975Z" transform="translate(133.472 24.014)" fill="#4c7291"></path><path id="Trac&#xE9;_12779" data-name="Trac&#xE9; 12779" d="M50.256,12.568l.024-.055c.134-.363.253-.739.359-1.13h.525a3.712,3.712,0,0,0,.067-.667,3.712,3.712,0,1,0-1.4,2.867c.154-.328.3-.664.427-1.015m-5.81-1.852a3.11,3.11,0,1,1,3.108,3.108,3.112,3.112,0,0,1-3.108-3.108" transform="translate(129.434 20.772)" fill="#4c7291"></path><line id="Ligne_201" data-name="Ligne 201" transform="translate(179.262 34.354)" fill="#6598c3"></line><path id="Trac&#xE9;_12780" data-name="Trac&#xE9; 12780" d="M45.495,8.482l.024-.055-.024.055" transform="translate(134.194 24.857)" fill="#4c7291"></path><path id="Trac&#xE9;_12781" data-name="Trac&#xE9; 12781" d="M45.387,9.456c.154-.324.3-.664.427-1.015-.13.352-.273.691-.427,1.015" transform="translate(133.876 24.898)" fill="#4c7291"></path><path id="Trac&#xE9;_12782" data-name="Trac&#xE9; 12782" d="M45.5,9.271c.134-.363.257-.739.359-1.13-.107.391-.225.766-.359,1.13" transform="translate(134.212 24.014)" fill="#4c7291"></path><path id="Trac&#xE9;_12783" data-name="Trac&#xE9; 12783" d="M45.837,9.271l-.024.055c-.13.352-.273.691-.427,1.015a3.669,3.669,0,0,0,1.335-2.2H46.2c-.1.391-.225.766-.359,1.13" transform="translate(133.876 24.014)" fill="#4c7291"></path><path id="Trac&#xE9;_12784" data-name="Trac&#xE9; 12784" d="M59.294,16.621c-7.647-1.027-9.933-3.255-9.933-6.734,0-3.539,2.512-6.335,9.021-6.335,5.083,0,7.749,1.852,9.084,4.751a4.281,4.281,0,0,1,1.41,1.43c-1.137-4.088-4.1-6.983-10.494-6.983-6.908,0-9.874,3.14-9.874,7.137s2.567,6.335,10.617,7.477c7.82,1.082,10.617,3.14,10.617,7.82,0,4.337-3.653,7.133-10.277,7.133-5.7,0-9.06-2.022-10.53-5.411a4.286,4.286,0,0,1-1.39-1.521c1.1,4.767,4.941,7.733,11.92,7.733,6.509,0,11.075-2.686,11.075-7.935,0-5.138-2.966-7.421-11.245-8.563" transform="translate(140.238 8.112)" fill="#4c7291"></path><path id="Trac&#xE9;_12785" data-name="Trac&#xE9; 12785" d="M59.833,33.447c-6.726,0-10.909-2.725-12.1-7.88l-.312-1.351.66,1.22a4.118,4.118,0,0,0,1.331,1.453l.043.028.024.051c1.521,3.515,5.008,5.3,10.356,5.3,6.315,0,10.087-2.6,10.087-6.947,0-4.566-2.737-6.564-10.455-7.631-7.654-1.09-10.779-3.31-10.779-7.666,0-4.586,3.764-7.323,10.064-7.323,5.766,0,9.361,2.4,10.676,7.121l.375,1.343-.719-1.2A4.088,4.088,0,0,0,67.736,8.6l-.047-.028-.024-.051C66.223,5.4,63.308,3.88,58.751,3.88c-5.7,0-8.831,2.18-8.831,6.146,0,3.721,2.832,5.616,9.768,6.549h0C68,17.724,71.1,20.093,71.1,25.323c0,5.087-4.21,8.124-11.264,8.124m-11.446-6.94c1.446,4.3,5.379,6.56,11.446,6.56,6.817,0,10.885-2.9,10.885-7.745,0-5.056-2.9-7.248-11.079-8.377-7.173-.96-10.1-2.966-10.1-6.92,0-2.437,1.2-6.525,9.207-6.525,4.7,0,7.718,1.576,9.234,4.815a4.442,4.442,0,0,1,.754.6c-1.481-3.926-4.759-5.842-9.989-5.842-6.158,0-9.688,2.532-9.688,6.947,0,3.488,1.781,6.059,10.455,7.291,7.959,1.1,10.779,3.2,10.779,8.006,0,4.586-3.91,7.323-10.463,7.323-5.486,0-9.08-1.841-10.68-5.474a4.555,4.555,0,0,1-.766-.664" transform="translate(139.87 7.973)" fill="#4c7291"></path><path id="Trac&#xE9;_12786" data-name="Trac&#xE9; 12786" d="M47.992,11.236l-.008-.1a3.7,3.7,0,1,1,.936,2.437,10.54,10.54,0,0,0,.395,1.094,4.24,4.24,0,1,0-1.39-1.521,13.326,13.326,0,0,1-.292-1.912Z" transform="translate(139.858 20.35)" fill="#4c7291"></path><path id="Trac&#xE9;_12787" data-name="Trac&#xE9; 12787" d="M49.153,11.432a9.764,9.764,0,0,1-.395-1.1A3.65,3.65,0,0,1,47.829,8H47.47a13.269,13.269,0,0,0,.292,1.92,4.271,4.271,0,0,0,1.39,1.517" transform="translate(140.02 23.586)" fill="#4c7291"></path><path id="Trac&#xE9;_12788" data-name="Trac&#xE9; 12788" d="M51.232,14.392a3.675,3.675,0,1,0-3.673-3.677l.008.1h.5a11.371,11.371,0,0,0,.434,2.334,3.642,3.642,0,0,0,2.733,1.244m0-6.785a3.108,3.108,0,1,1-3.108,3.108,3.112,3.112,0,0,1,3.108-3.108" transform="translate(140.282 20.772)" fill="#4c7291"></path><path id="Trac&#xE9;_12789" data-name="Trac&#xE9; 12789" d="M47.561,8a3.667,3.667,0,0,0,.928,2.338A12.023,12.023,0,0,1,48.055,8Z" transform="translate(140.288 23.589)" fill="#4c7291"></path><path id="Trac&#xE9;_12790" data-name="Trac&#xE9; 12790" d="M58.8,7.641a3.657,3.657,0,1,1-.98-1.963,11.082,11.082,0,0,0-.411-1.047,4.249,4.249,0,1,0,1.41,1.43,14.161,14.161,0,0,1,.348,1.58Z" transform="translate(150.294 11.784)" fill="#4c7291"></path><path id="Trac&#xE9;_12791" data-name="Trac&#xE9; 12791" d="M52.589,4.157A10.677,10.677,0,0,1,53,5.2a3.646,3.646,0,0,1,.98,1.963h.367A13.331,13.331,0,0,0,54,5.587a4.234,4.234,0,0,0-1.406-1.43" transform="translate(155.119 12.262)" fill="#6598c3"></path><path id="Trac&#xE9;_12792" data-name="Trac&#xE9; 12792" d="M54.769,4.138a3.675,3.675,0,1,0,3.673,3.677,3.721,3.721,0,0,0-.059-.6H57.9A14.064,14.064,0,0,0,57.4,5.26a3.665,3.665,0,0,0-2.634-1.122m0,6.786a3.108,3.108,0,1,1,3.108-3.108,3.112,3.112,0,0,1-3.108,3.108" transform="translate(150.715 12.206)" fill="#4c7291"></path><path id="Trac&#xE9;_12793" data-name="Trac&#xE9; 12793" d="M53.673,6.384a3.66,3.66,0,0,0-.98-1.963,13.584,13.584,0,0,1,.49,1.963Z" transform="translate(155.426 13.041)" fill="#6598c3"></path><path id="Trac&#xE9;_12794" data-name="Trac&#xE9; 12794" d="M50.306,25.9c-1.872,4.285-5.755,6.414-10.478,6.414-7.99,0-12.615-6.11-12.67-14.784H52.328c-.229-5.423-2-9.819-5.249-12.331a11.623,11.623,0,0,0-7.536-2.453c-8.334,0-13.243,6.62-13.243,14.724,0,8.906,4.74,15.641,13.528,15.641,6.849,0,10.9-4.222,11.987-9.076H51.5a3.627,3.627,0,0,1-1.2,1.864M39.543,3.549c5.707,0,11.245,3.709,11.928,13.184H27.157C27.441,8.4,33.034,3.549,39.543,3.549" transform="translate(77.576 8.115)" fill="#4c7291"></path><path id="Trac&#xE9;_12795" data-name="Trac&#xE9; 12795" d="M39.97,33.447c-8.334,0-13.717-6.213-13.717-15.826C26.253,8.837,31.775,2.7,39.682,2.7a11.839,11.839,0,0,1,7.654,2.5c3.243,2.5,5.083,6.813,5.32,12.465l.008.2H27.489c.122,8.891,4.894,14.4,12.481,14.4,4.866,0,8.527-2.236,10.3-6.3l.051-.071a3.416,3.416,0,0,0,1.134-1.769L51.5,24h.691l-.051.229c-1,4.459-4.716,9.222-12.169,9.222M39.682,3.082C32,3.082,26.628,9.058,26.628,17.621c0,9.384,5.237,15.451,13.342,15.451,6.8,0,10.4-4.08,11.6-8.156a3.844,3.844,0,0,1-.968,1.248c-1.848,4.183-5.62,6.481-10.632,6.481-7.753,0-12.8-5.873-12.86-14.969l0-.19H52.273C52,12.044,50.219,7.9,47.1,5.5a11.487,11.487,0,0,0-7.421-2.413M51.815,17.064H27.1l.008-.194C27.379,9,32.549,3.5,39.682,3.5,46.665,3.5,51.2,8.5,51.8,16.862Zm-24.322-.375H51.408C50.765,8.663,46.392,3.88,39.682,3.88c-6.861,0-11.849,5.257-12.189,12.809" transform="translate(77.437 7.973)" fill="#4c7291"></path><path id="Trac&#xE9;_12796" data-name="Trac&#xE9; 12796" d="M36.535,3.928,28.15.543V2.3l8.385,2.33Z" transform="translate(83.033 1.602)" fill="#4c7291"></path></g></g></g></svg>