<svg version="1.1" id="Calque_1" xmlns="http://www.w3.org/2000/svg" xmlns:xlink="http://www.w3.org/1999/xlink" x="0px" y="0px" style="enable-background:new 0 0 841.9 595.3;" xml:space="preserve" viewBox="226.57 237.68 388.73 179.63">
<style type="text/css">
	.st0{fill:#FFFFFF;}
	.st1{fill: #e5a722;}
</style>
<path class="st0" d="M350.4,298.1c-8.5-2.1-15.4-3.9-15.5-8.9l0,0h43.7c-0.9-17.4-13.4-27.9-34.6-27.9c-21.4,0-35,10.2-35,28.5  c0,9.5,3.6,15.6,8.7,19.6c6.1,4.8,14.4,6.9,21.6,8.6c8.7,2.1,18.6,4.4,15.2,12.5h-46.3c2.2,17,16.1,27,36.7,27  c20.1,0,34.8-9.2,36.6-27C384.1,304.3,358.8,300.2,350.4,298.1z"/>
<path class="st0" d="M542.1,298.1c-8.5-2.1-15.4-3.9-15.5-8.9l0,0h43.7c-0.9-17.4-13.4-27.9-34.6-27.9c-21.4,0-35,10.2-35,28.5  c0,9.5,3.6,15.6,8.7,19.6c6.1,4.8,14.4,6.9,21.6,8.6c8.7,2.1,18.6,4.4,15.2,12.5h-46.3c2.2,17,16.1,27,36.7,27  c20.1,0,34.8-9.2,36.6-27C575.8,304.3,550.5,300.2,542.1,298.1z"/>
<path class="st0" d="M491.1,309.3c0-31.9-25.2-48.2-50.4-48.2c-27.2,0-50.6,18.1-50.6,48.2c0,0,0,0,0,0c0,28.1,21.1,48.2,50.6,48.2  l0,0C470.1,357.6,491.1,337.5,491.1,309.3C491.1,309.4,491.1,309.3,491.1,309.3z M440.7,334.1c-14,0-24.2-10.4-24.2-24.7  c0,0,0,0,0,0c0-15.4,11.6-24.7,24.2-24.7s24.1,9.2,24.1,24.7c0,0,0,0,0,0C464.8,323.7,454.6,334.1,440.7,334.1z"/>
<path class="st1" d="M589.6,263.4c15.2,0,25.7-12.3,25.7-25.7h-25.7V263.4z"/>
<path class="st1" d="M251.5,330.5c0,15.2,12.3,25.6,25.7,25.6v-25.6H251.5z"/>
<path class="st0" d="M589.6,263.4l-0.1,92.8c14.2,0,25.6-11.4,25.7-25.5l0.1-41.9C615.2,274.8,603.8,263.4,589.6,263.4z"/>
<g>
	<path class="st0" d="M277.3,263.4c0-14.4-11.5-25.7-25.8-25.7v25.7h-24.9v25.7h24.9v41.4h25.7v-41.4H302v-25.7H277.3z"/>
</g>
<g>
	<path class="st0" d="M261.1,396.1h-5.3v15.3h-4.1v-15.3h-5.3v-3.9h14.8L261.1,396.1L261.1,396.1z"/>
	<path class="st0" d="M273,396.6v3.8h-1.7c-2.2,0-3.1,1-3.1,3.4v7.7h-4v-14.8h2.6l0.7,1.8c1-1.3,2.4-1.9,4.3-1.9L273,396.6   L273,396.6z"/>
	<path class="st0" d="M291.3,396.6v14.8h-3.1l-0.3-1.3c-1.3,1.1-2.9,1.8-4.8,1.8c-4.5,0-7.8-3.4-7.8-7.8c0-4.5,3.3-7.8,7.8-7.8   c1.9,0,3.6,0.7,4.9,1.8l0.4-1.4H291.3z M287.4,404c0-2.3-1.7-4-4-4c-2.3,0-4,1.7-4,4c0,2.3,1.7,4,4,4   C285.7,408.1,287.4,406.4,287.4,404z"/>
	<path class="st0" d="M310.4,402.5v9h-4v-8.3c0-2.2-0.9-3.3-2.6-3.3c-2.1,0-3.3,1.5-3.3,3.9v7.8h-4v-14.8h2.7l0.8,1.8   c1.1-1.3,2.9-2.2,4.9-2.2C308.3,396.3,310.4,398.8,310.4,402.5z"/>
	<path class="st0" d="M320.7,411.9c-3.7,0-6.2-2.1-6.2-5.3h3.9c0,1.3,1,2,2.5,2c1.1,0,2.1-0.5,2.1-1.5c0-1-1.3-1.3-2.8-1.6   c-2.4-0.4-5.4-1-5.4-4.5c0-2.8,2.4-4.7,6-4.7s5.9,2,5.9,4.9h-3.8c0-1.2-0.8-1.8-2.2-1.8c-1.2,0-2,0.6-2,1.4c0,1,1.3,1.2,2.8,1.5   c2.4,0.4,5.5,0.9,5.5,4.5C326.9,409.9,324.4,411.9,320.7,411.9L320.7,411.9z"/>
	<path class="st0" d="M347,404.1c0,4.5-3.3,7.8-7.7,7.8c-1.5,0-2.9-0.5-4.1-1.2v6.1h-4v-20.1h2.6l0.7,1.3c1.2-1.1,2.9-1.8,4.7-1.8   C343.7,396.2,347,399.6,347,404.1z M343,404.1c0-2.3-1.7-4-4-4s-4,1.7-4,4s1.7,4,4,4S343,406.4,343,404.1z"/>
	<path class="st0" d="M365.7,396.6v14.8h-3.1l-0.3-1.3c-1.3,1.1-2.9,1.8-4.8,1.8c-4.5,0-7.8-3.4-7.8-7.8c0-4.5,3.3-7.8,7.8-7.8   c1.9,0,3.6,0.7,4.9,1.8l0.4-1.4H365.7z M361.8,404c0-2.3-1.7-4-4-4c-2.3,0-4,1.7-4,4c0,2.3,1.7,4,4,4   C360.1,408.1,361.8,406.4,361.8,404z"/>
	<path class="st0" d="M379.8,396.6v3.8h-1.7c-2.2,0-3.1,1-3.1,3.4v7.7h-4v-14.8h2.6l0.7,1.8c1-1.3,2.4-1.9,4.3-1.9L379.8,396.6   L379.8,396.6z"/>
	<path class="st0" d="M396.9,405.2h-11.2c0.4,2,1.7,3.1,3.6,3.1c1.4,0,2.5-0.7,3.1-1.7h4.2c-1.1,3.2-3.9,5.3-7.3,5.3   c-4.4,0-7.7-3.4-7.7-7.8c0-4.5,3.3-7.8,7.7-7.8c4.5,0,7.6,3.5,7.6,7.8C396.9,404.4,396.9,404.8,396.9,405.2z M385.8,402.5h7.2   c-0.6-1.8-1.9-2.8-3.7-2.8C387.5,399.7,386.2,400.7,385.8,402.5z"/>
	<path class="st0" d="M415,402.5v9h-4v-8.3c0-2.2-0.9-3.3-2.6-3.3c-2.1,0-3.3,1.5-3.3,3.9v7.8h-4v-14.8h2.7l0.8,1.8   c1.1-1.3,2.9-2.2,4.9-2.2C412.9,396.3,415,398.8,415,402.5z"/>
	<path class="st0" d="M419.1,404c0-4.4,3.4-7.8,7.9-7.8c3.8,0,6.8,2.4,7.5,6.1h-4c-0.6-1.5-2-2.3-3.6-2.3c-2.2,0-3.8,1.7-3.8,4   s1.7,4.1,3.8,4.1c1.6,0,2.9-0.9,3.6-2.5h4c-0.7,3.7-3.7,6.2-7.6,6.2C422.5,411.9,419.1,408.4,419.1,404z"/>
	<path class="st0" d="M452.6,396.7l-6.4,14.6c-1.8,4-3.3,5.5-6.6,5.5h-1.6v-3.6h1.4c1.9,0,2.4-0.5,3.3-2.8l0.1-0.1l-6.3-13.6h4.4   l3.9,9.1l3.7-9.1H452.6z"/>
	<path class="st0" d="M462.2,404.1c0-4.5,3.4-7.8,8-7.8c4.6,0,8,3.3,8,7.8c0,4.5-3.4,7.8-8,7.8C465.6,411.9,462.2,408.5,462.2,404.1   z M474.1,404.1c0-2.4-1.6-4-3.9-4s-3.9,1.7-3.9,4c0,2.4,1.6,4,3.9,4S474.1,406.5,474.1,404.1z"/>
	<path class="st0" d="M491.2,400.2h-3.7v11.3h-4v-11.3h-2.6v-3.3h2.6v-1.3c0-2.8,1.6-4.6,4.7-4.6h3v3.1H489c-1,0-1.6,0.5-1.6,1.6   v1.2h3.8L491.2,400.2L491.2,400.2z"/>
	<path class="st0" d="M511.3,400.2h-3.7v11.3h-4v-11.3H501v-3.3h2.6v-1.3c0-2.8,1.6-4.6,4.7-4.6h3v3.1h-2.2c-1,0-1.6,0.5-1.6,1.6   v1.2h3.8L511.3,400.2L511.3,400.2z"/>
	<path class="st0" d="M514.8,405.2v-8.5h4v8.1c0,2.1,1.1,3.4,3,3.4c1.8,0,2.9-1.3,2.9-3.4v-8.1h4v8.5c0,4-2.8,6.7-6.9,6.7   C517.5,411.9,514.8,409.2,514.8,405.2z"/>
	<path class="st0" d="M547.6,402.5v9h-4v-8.3c0-2.2-0.8-3.3-2.6-3.3c-2.1,0-3.3,1.5-3.3,3.9v7.8h-4v-14.8h2.7l0.8,1.8   c1.1-1.3,2.9-2.2,4.9-2.2C545.5,396.3,547.6,398.8,547.6,402.5z"/>
	<path class="st0" d="M567.5,391.3v20.1h-3l-0.5-1.2c-1.2,1.1-2.8,1.7-4.6,1.7c-4.5,0-7.8-3.4-7.8-7.8c0-4.5,3.3-7.8,7.8-7.8   c1.5,0,2.9,0.4,4.1,1.2v-6.1L567.5,391.3L567.5,391.3z M563.8,404.1c0-2.3-1.7-4-4-4s-4,1.7-4,4c0,2.3,1.7,4,4,4   S563.8,406.4,563.8,404.1z"/>
	<path class="st0" d="M572.7,396.7h4v14.8h-4V396.7z M572.7,391h4v3.7h-4V391z"/>
	<path class="st0" d="M595.8,402.5v9h-4v-8.3c0-2.2-0.8-3.3-2.6-3.3c-2.1,0-3.3,1.5-3.3,3.9v7.8h-4v-14.8h2.7l0.8,1.8   c1.1-1.3,2.9-2.2,4.9-2.2C593.7,396.3,595.8,398.8,595.8,402.5z"/>
	<path class="st0" d="M615.3,396.7v13.1c0,4.6-2.9,7.5-7.5,7.5c-4,0-6.8-2-7.5-5.4h4c0.5,1.3,2,2,3.5,2c2,0,3.7-1.3,3.7-3.5v-0.5   c-1.2,0.8-2.6,1.3-4.2,1.3c-4.1,0-7.3-3.2-7.3-7.4c0-4.1,3.2-7.4,7.3-7.4c1.9,0,3.6,0.7,4.9,1.9l0.6-1.5L615.3,396.7L615.3,396.7z    M611.4,403.7c0-2.2-1.6-3.8-3.8-3.8c-2.2,0-3.8,1.6-3.8,3.8c0,2.2,1.6,3.8,3.8,3.8C609.8,407.5,611.4,405.9,611.4,403.7z"/>
</g>
</svg>