<?xml version="1.0" encoding="UTF-8" standalone="no"?>
<!-- Created with Inkscape (http://www.inkscape.org/) -->

<svg
   width="17.483364mm"
   height="26.947645mm"
   viewBox="0 0 17.483364 26.947645"
   version="1.1"
   id="svg1"
   xml:space="preserve"
   inkscape:version="1.4.3 (fcd0343856, 2026-01-01)"
   sodipodi:docname="wip.svg"
   xmlns:inkscape="http://www.inkscape.org/namespaces/inkscape"
   xmlns:sodipodi="http://sodipodi.sourceforge.net/DTD/sodipodi-0.dtd"
   xmlns="http://www.w3.org/2000/svg"
   xmlns:svg="http://www.w3.org/2000/svg"><sodipodi:namedview
     id="namedview1"
     pagecolor="#ffffff"
     bordercolor="#000000"
     borderopacity="0.25"
     inkscape:showpageshadow="2"
     inkscape:pageopacity="0.0"
     inkscape:pagecheckerboard="false"
     inkscape:deskcolor="#d1d1d1"
     inkscape:document-units="mm"
     showborder="false"
     labelstyle="default"
     borderlayer="true"
     inkscape:antialias-rendering="true"
     inkscape:zoom="1.4142136"
     inkscape:cx="1628.1134"
     inkscape:cy="237.23433"
     inkscape:window-width="1033"
     inkscape:window-height="1043"
     inkscape:window-x="20"
     inkscape:window-y="20"
     inkscape:window-maximized="0"
     inkscape:current-layer="g19435"
     inkscape:export-bgcolor="#ffffffff"><inkscape:page
       x="0"
       y="0"
       width="17.483364"
       height="26.947645"
       id="page2"
       margin="0"
       bleed="0" /></sodipodi:namedview><defs
     id="defs1" /><g
     inkscape:label="Layer 1"
     inkscape:groupmode="layer"
     id="layer1"
     transform="translate(-81.240549,-17.934158)"><g
       id="g19435"><g
         id="g19434"
         transform="matrix(0.88013485,0,0,0.88013485,57.790554,-2.2684444)"><path
           id="path19433"
           style="fill:#ffffff;fill-opacity:1;stroke:none;stroke-width:0.261;stroke-dasharray:none;stroke-opacity:1"
           d="m 36.575846,22.954057 v 19.709391 c 0.02593,1.61e-4 0.05148,0 0.07751,0 5.442625,0 9.854695,-4.412071 9.854695,-9.854696 0,-5.442625 -4.41207,-9.854695 -9.854695,-9.854695 -0.02603,0 -0.05159,-1.61e-4 -0.07751,0 z" /><path
           id="path19434"
           style="fill:#e7a824;fill-opacity:1;stroke:none;stroke-width:0.261;stroke-dasharray:none;stroke-opacity:1"
           d="M 36.575846,53.57155 V 33.862159 c -0.02593,-1.61e-4 -0.05148,0 -0.07752,0 -5.442625,0 -9.854695,4.412071 -9.854695,9.854696 0,5.442625 4.41207,9.854695 9.854695,9.854695 0.02603,0 0.05159,1.61e-4 0.07752,0 z" /></g></g></g></svg>
